# xmcd
#
# Track frame offsets:
#	150
#	8773
#	24326
#	33632
#	45040
#	58267
#	68750
#	77868
#	87882
#	97243
#	107106
#	117962
#	129166
#	143097
#	154718
#	164803
#	175551
#	187522
#	197393
#	208616
#	220638
#	234802
#	243115
#	253085
#	264367
#	278430
#	289470
#	306956
#
# Disc length: 4234 seconds
#
# Revision: 1
# Processed by: cddbd v1.5.2PL0 Copyright (c) Steve Scherf et al.
# Submitted via: audiograbber 1.83.01
#
DISCID=7110881c
DTITLE=Various Artist - Boogie Woogie Goodies
DYEAR=1900
DGENRE=Boogie Woogie
TTITLE0=Cochran Eddie - C'mon Everybody
TTITLE1=Racey - Some Girls
TTITLE2=Butera Sam and The Witnesses - Bim Bam
TTITLE3=Danny And The Juniors - At The Hop
TTITLE4=Old Formation - Rain In The City
TTITLE5=Shape Rocky AndThe Replays - Rama Lama Ding Dong
TTITLE6=Domino Fats - I'm Walking
TTITLE7=MR. Rocking 50's - Let's Think About Living
TTITLE8=Restivo Johnny - The Shape I'm In
TTITLE9=The Champs - Tequilla
TTITLE10=Chubby Checkers - Hey Bobba Needle
TTITLE11=Mann Carl - Mona Lisa
TTITLE12=Mojo Blues Band feat. Gillespie Dana - Choo Choo Ch 'Boogie
TTITLE13=Day Bobby - Rockin' Robin
TTITLE14=Burke Salomon - Be Bop Grandma
TTITLE15=The Big Bopper - Chantilly Lace
TTITLE16=Berry Chuck - Johnny B. Goode
TTITLE17=Jackson Wanda - Let's Have A Party
TTITLE18=Ray Johnny - Yes Tonight, Josephine
TTITLE19=Bay City Rollers - Keep On Dancing
TTITLE20=Electric Light Orchestra - Rock And Roll Is King
TTITLE21=Jerry Lee Lewis - Great Balls Of Fire
TTITLE22=Darin Bobby - Splish Splash
TTITLE23=Holly Buddy - Peggy Sue
TTITLE24=Showaddywaddy - Under The Moon Of Love
TTITLE25=Little Richard - Lucille
TTITLE26=Ponger Robert and Boogie Band - Background Boogie
TTITLE27=Ponger Robert and Boogie Band - Country Boogie
EXTD=
EXTT0=
EXTT1=
EXTT2=
EXTT3=
EXTT4=
EXTT5=
EXTT6=
EXTT7=
EXTT8=
EXTT9=
EXTT10=
EXTT11=
EXTT12=
EXTT13=
EXTT14=
EXTT15=
EXTT16=
EXTT17=
EXTT18=
EXTT19=
EXTT20=
EXTT21=
EXTT22=
EXTT23=
EXTT24=
EXTT25=
EXTT26=
EXTT27=
PLAYORDER=
